<svg xmlns="http://www.w3.org/2000/svg" width="900" height="1200" viewBox="0 0 900 1200">
  <rect width="900" height="1200" fill="#ffffff"/>
  <text x="450" y="90" text-anchor="middle" font-family="Georgia, 'Times New Roman', serif" font-size="28" font-weight="700" fill="#222">RESIDENTIAL LEASE AGREEMENT</text>
  <text x="450" y="125" text-anchor="middle" font-family="Georgia, 'Times New Roman', serif" font-size="16" font-weight="600" fill="#444">[Single-Family House]</text>
  <text x="450" y="165" text-anchor="middle" font-family="Arial, sans-serif" font-size="14" fill="#2b6cb0">Click Here for Instructions</text>

  <rect x="80" y="205" width="740" height="2" fill="#f0f0f0"/>

  <!-- Paragraph blocks -->
  <g fill="#1f2937">
    <rect x="80" y="230" width="720" height="10" rx="3"/>
    <rect x="80" y="250" width="700" height="10" rx="3"/>
    <rect x="80" y="270" width="680" height="10" rx="3"/>
    <rect x="80" y="290" width="650" height="10" rx="3"/>
    <rect x="80" y="310" width="720" height="10" rx="3"/>
  </g>

  <g fill="#1f2937">
    <rect x="80" y="360" width="420" height="12" rx="3"/>
    <rect x="80" y="380" width="700" height="10" rx="3"/>
    <rect x="80" y="400" width="680" height="10" rx="3"/>
    <rect x="80" y="420" width="640" height="10" rx="3"/>
    <rect x="80" y="440" width="720" height="10" rx="3"/>
  </g>

  <g fill="#1f2937">
    <rect x="80" y="500" width="360" height="12" rx="3"/>
    <rect x="80" y="520" width="700" height="10" rx="3"/>
    <rect x="80" y="540" width="680" height="10" rx="3"/>
    <rect x="80" y="560" width="640" height="10" rx="3"/>
    <rect x="80" y="580" width="720" height="10" rx="3"/>
  </g>

  <g fill="#1f2937">
    <rect x="80" y="640" width="220" height="12" rx="3"/>
    <rect x="80" y="660" width="700" height="10" rx="3"/>
    <rect x="80" y="680" width="680" height="10" rx="3"/>
    <rect x="80" y="700" width="640" height="10" rx="3"/>
    <rect x="80" y="720" width="720" height="10" rx="3"/>
  </g>

  <g fill="#1f2937">
    <rect x="80" y="780" width="300" height="12" rx="3"/>
    <rect x="80" y="800" width="700" height="10" rx="3"/>
    <rect x="80" y="820" width="680" height="10" rx="3"/>
    <rect x="80" y="840" width="640" height="10" rx="3"/>
    <rect x="80" y="860" width="720" height="10" rx="3"/>
  </g>

  <rect x="80" y="1030" width="260" height="2" fill="#d1d5db"/>
  <rect x="560" y="1030" width="260" height="2" fill="#d1d5db"/>
  <text x="210" y="1055" text-anchor="middle" font-family="Arial, sans-serif" font-size="11" fill="#6b7280">Tenant's Initials</text>
  <text x="690" y="1055" text-anchor="middle" font-family="Arial, sans-serif" font-size="11" fill="#6b7280">Landlord's Initials</text>

  <text x="880" y="1180" text-anchor="end" font-family="Arial, sans-serif" font-size="12" fill="#9ca3af">1</text>
</svg>
